<svg width="65" height="65" viewBox="0 0 65 65" fill="none" xmlns="http://www.w3.org/2000/svg">
<g id="mic_none_24px">
<path id="icon/av/mic_none_24px" fill-rule="evenodd" clip-rule="evenodd" d="M32.5 39.1173C36.8939 39.1173 40.4408 35.5704 40.4408 31.1765V15.295C40.4408 10.9011 36.8939 7.35417 32.5 7.35417C28.1061 7.35417 24.5592 10.9011 24.5592 15.295V31.1765C24.5592 35.5704 28.1061 39.1173 32.5 39.1173ZM29.8531 15.295C29.8531 13.8391 31.0442 12.648 32.5 12.648C33.9558 12.648 35.1469 13.8391 35.1469 15.295V31.1765C35.1469 32.6324 33.9558 33.8235 32.5 33.8235C31.0442 33.8235 29.8531 32.6324 29.8531 31.1765V15.295ZM32.5 44.4112C39.8055 44.4112 45.7347 38.4821 45.7347 31.1765H51.0285C51.0285 40.5202 44.12 48.1963 35.1469 49.4933V57.6458H29.8531V49.4933C20.88 48.1963 13.9715 40.5202 13.9715 31.1765H19.2654C19.2654 38.4821 25.1945 44.4112 32.5 44.4112Z" fill="#F2F2F2"/>
</g>
</svg>
